<svg width="2768" height="647" viewBox="0 0 2768 647" fill="none" xmlns="http://www.w3.org/2000/svg">
<rect width="2768" height="647" rx="68" fill="black"/>
<path d="M61 172.406C61 142.583 85.1766 118.406 115 118.406H249C348.411 118.406 429 198.995 429 298.406V303.594C429 403.005 348.411 483.594 249 483.594H115C85.1766 483.594 61 459.417 61 429.594V172.406Z" fill="#D9D9D9"/>
<path d="M122 200.09C122 187.94 131.85 178.09 144 178.09H239C305.274 178.09 359 231.816 359 298.09V303.909C359 370.184 305.274 423.909 239 423.909H144C131.85 423.909 122 414.06 122 401.909V200.09Z" fill="black"/>
<path d="M583.474 489.327C555.42 489.327 531.273 483.645 511.031 472.281C490.908 460.799 475.402 444.582 464.511 423.631C453.621 402.561 448.176 377.643 448.176 348.879C448.176 320.825 453.621 296.204 464.511 275.016C475.402 253.827 490.731 237.314 510.499 225.477C530.385 213.64 553.704 207.722 580.456 207.722C598.448 207.722 615.198 210.622 630.705 216.422C646.33 222.104 659.942 230.686 671.543 242.168C683.261 253.65 692.376 268.091 698.886 285.491C705.397 302.774 708.652 323.015 708.652 346.216V366.99H478.361V320.115H637.452C637.452 309.225 635.084 299.578 630.349 291.173C625.615 282.769 619.045 276.199 610.641 271.464C602.355 266.611 592.707 264.185 581.699 264.185C570.217 264.185 560.037 266.848 551.159 272.175C542.4 277.383 535.534 284.426 530.562 293.304C525.591 302.063 523.046 311.829 522.928 322.601V367.168C522.928 380.662 525.413 392.321 530.385 402.146C535.475 411.971 542.636 419.547 551.869 424.874C561.102 430.2 572.052 432.864 584.717 432.864C593.122 432.864 600.816 431.68 607.8 429.312C614.784 426.945 620.761 423.394 625.733 418.659C630.705 413.924 634.492 408.124 637.097 401.259L707.054 405.875C703.503 422.684 696.223 437.362 685.214 449.909C674.324 462.338 660.238 472.045 642.956 479.028C625.792 485.894 605.965 489.327 583.474 489.327ZM758.013 484V211.273H830.101V259.391H833.297C838.979 243.411 848.448 230.804 861.706 221.571C874.964 212.338 890.825 207.722 909.291 207.722C927.994 207.722 943.915 212.397 957.054 221.749C970.193 230.982 978.953 243.529 983.332 259.391H986.173C991.737 243.766 1001.8 231.277 1016.36 221.926C1031.04 212.456 1048.38 207.722 1068.38 207.722C1093.83 207.722 1114.49 215.83 1130.35 232.047C1146.33 248.145 1154.32 270.991 1154.32 300.584V484H1078.86V315.499C1078.86 300.347 1074.83 288.983 1066.78 281.408C1058.73 273.832 1048.67 270.044 1036.6 270.044C1022.87 270.044 1012.16 274.424 1004.46 283.183C996.768 291.824 992.92 303.247 992.92 317.452V484H919.589V313.901C919.589 300.525 915.742 289.871 908.048 281.94C900.473 274.009 890.47 270.044 878.041 270.044C869.637 270.044 862.061 272.175 855.314 276.436C848.685 280.579 843.418 286.438 839.511 294.014C835.605 301.472 833.652 310.231 833.652 320.293V484H758.013ZM1291.84 489.149C1274.44 489.149 1258.93 486.131 1245.32 480.094C1231.7 473.938 1220.93 464.883 1213 452.928C1205.19 440.854 1201.28 425.821 1201.28 407.828C1201.28 392.677 1204.07 379.952 1209.63 369.653C1215.19 359.355 1222.77 351.069 1232.36 344.795C1241.94 338.522 1252.83 333.787 1265.03 330.591C1277.34 327.395 1290.24 325.146 1303.73 323.844C1319.6 322.187 1332.38 320.648 1342.09 319.227C1351.79 317.688 1358.84 315.439 1363.22 312.48C1367.59 309.521 1369.78 305.141 1369.78 299.341V298.276C1369.78 287.03 1366.23 278.33 1359.13 272.175C1352.15 266.019 1342.2 262.942 1329.3 262.942C1315.69 262.942 1304.86 265.96 1296.81 271.997C1288.76 277.916 1283.43 285.373 1280.83 294.369L1210.87 288.688C1214.42 272.116 1221.41 257.793 1231.82 245.719C1242.24 233.527 1255.67 224.175 1272.13 217.665C1288.7 211.036 1307.88 207.722 1329.66 207.722C1344.81 207.722 1359.31 209.497 1373.16 213.048C1387.13 216.599 1399.5 222.104 1410.27 229.561C1421.16 237.018 1429.74 246.607 1436.01 258.325C1442.29 269.926 1445.42 283.834 1445.42 300.051V484H1373.69V446.18H1371.56C1367.18 454.703 1361.32 462.22 1353.98 468.73C1346.64 475.122 1337.82 480.153 1327.53 483.822C1317.23 487.374 1305.33 489.149 1291.84 489.149ZM1313.5 436.947C1324.63 436.947 1334.45 434.758 1342.97 430.378C1351.5 425.88 1358.18 419.843 1363.04 412.267C1367.89 404.691 1370.32 396.109 1370.32 386.521V357.58C1367.95 359.118 1364.69 360.539 1360.55 361.841C1356.53 363.025 1351.97 364.149 1346.88 365.214C1341.79 366.161 1336.7 367.049 1331.61 367.878C1326.52 368.588 1321.9 369.239 1317.76 369.831C1308.88 371.133 1301.13 373.205 1294.5 376.045C1287.87 378.886 1282.72 382.733 1279.05 387.587C1275.38 392.321 1273.55 398.24 1273.55 405.342C1273.55 415.641 1277.28 423.512 1284.74 428.957C1292.31 434.284 1301.9 436.947 1313.5 436.947ZM1579.75 326.33V484H1504.11V211.273H1576.19V259.391H1579.39C1585.43 243.529 1595.55 230.982 1609.75 221.749C1623.96 212.397 1641.18 207.722 1661.42 207.722C1680.36 207.722 1696.87 211.865 1710.96 220.151C1725.05 228.437 1736 240.274 1743.81 255.662C1751.62 270.932 1755.53 289.161 1755.53 310.349V484H1679.89V323.844C1680.01 307.153 1675.74 294.133 1667.1 284.781C1658.46 275.312 1646.57 270.577 1631.41 270.577C1621.23 270.577 1612.24 272.767 1604.43 277.146C1596.73 281.526 1590.7 287.918 1586.32 296.322C1582.05 304.608 1579.86 314.611 1579.75 326.33ZM1915.64 488.439C1894.92 488.439 1876.16 483.112 1859.35 472.459C1842.66 461.687 1829.41 445.884 1819.58 425.051C1809.87 404.099 1805.02 378.413 1805.02 347.991C1805.02 316.741 1810.05 290.759 1820.11 270.044C1830.17 249.211 1843.55 233.645 1860.24 223.347C1877.05 212.93 1895.46 207.722 1915.46 207.722C1930.73 207.722 1943.46 210.326 1953.64 215.534C1963.93 220.624 1972.22 227.016 1978.49 234.71C1984.89 242.286 1989.74 249.743 1993.05 257.082H1995.36V120.364H2070.82V484H1996.25V440.321H1993.05C1989.5 447.897 1984.47 455.413 1977.96 462.871C1971.57 470.21 1963.22 476.306 1952.93 481.159C1942.75 486.012 1930.32 488.439 1915.64 488.439ZM1939.61 428.247C1951.8 428.247 1962.1 424.933 1970.5 418.304C1979.03 411.557 1985.54 402.146 1990.04 390.072C1994.65 377.999 1996.96 363.853 1996.96 347.636C1996.96 331.42 1994.71 317.333 1990.21 305.378C1985.71 293.422 1979.2 284.189 1970.68 277.679C1962.16 271.169 1951.8 267.913 1939.61 267.913C1927.18 267.913 1916.7 271.287 1908.18 278.034C1899.66 284.781 1893.21 294.133 1888.83 306.088C1884.45 318.044 1882.26 331.893 1882.26 347.636C1882.26 363.498 1884.45 377.525 1888.83 389.717C1893.33 401.791 1899.78 411.261 1908.18 418.126C1916.7 424.874 1927.18 428.247 1939.61 428.247ZM2133.01 484V211.273H2208.65V484H2133.01ZM2171.01 176.116C2159.76 176.116 2150.12 172.388 2142.07 164.93C2134.14 157.355 2130.17 148.299 2130.17 137.764C2130.17 127.348 2134.14 118.411 2142.07 110.953C2150.12 103.377 2159.76 99.5895 2171.01 99.5895C2182.26 99.5895 2191.84 103.377 2199.77 110.953C2207.82 118.411 2211.85 127.348 2211.85 137.764C2211.85 148.299 2207.82 157.355 2199.77 164.93C2191.84 172.388 2182.26 176.116 2171.01 176.116ZM2415.91 211.273V268.091H2247.58V211.273H2415.91ZM2286.11 484V191.564C2286.11 171.796 2289.96 155.401 2297.65 142.381C2305.46 129.36 2316.12 119.594 2329.61 113.084C2343.11 106.573 2358.44 103.318 2375.6 103.318C2387.2 103.318 2397.79 104.206 2407.38 105.982C2417.09 107.757 2424.31 109.355 2429.04 110.776L2415.55 167.594C2412.59 166.647 2408.92 165.759 2404.54 164.93C2400.28 164.102 2395.9 163.688 2391.4 163.688C2380.28 163.688 2372.52 166.292 2368.14 171.5C2363.76 176.59 2361.57 183.751 2361.57 192.984V484H2286.11ZM2508.81 586.273C2499.22 586.273 2490.23 585.503 2481.82 583.964C2473.54 582.544 2466.67 580.709 2461.23 578.46L2478.27 521.997C2487.15 524.72 2495.14 526.199 2502.24 526.436C2509.46 526.673 2515.68 525.016 2520.89 521.464C2526.21 517.913 2530.53 511.876 2533.85 503.354L2538.29 491.812L2440.45 211.273H2520L2576.46 411.557H2579.3L2636.3 211.273H2716.38L2610.37 513.474C2605.28 528.152 2598.36 540.937 2589.6 551.827C2580.96 562.835 2570.01 571.299 2556.75 577.217C2543.49 583.254 2527.51 586.273 2508.81 586.273Z" fill="#D9D9D9"/>
<rect x="158" y="297.875" width="20" height="98.1253" rx="10" fill="#58A799"/>
<rect x="197" y="319" width="20" height="77" rx="10" fill="#D9D9D9"/>
<rect x="236" y="254.376" width="20" height="141.624" rx="10" fill="#58A799"/>
</svg>
